<svg width="360" height="120" xmlns="http://www.w3.org/2000/svg">
  <!-- Background -->
  <rect width="100%" height="100%" fill="#ffffff"/>

  <!-- Chat Icon -->
  <path d="M40,20 h60 a10,10 0 0 1 10,10 v40 a10,10 0 0 1 -10,10 h-25 l-15,15 v-15 h-20 a10,10 0 0 1 -10,-10 v-40 a10,10 0 0 1 10,-10 z" fill="#2C3E50"/>

  <!-- Document inside chat icon -->
  <rect x="55" y="30" width="30" height="40" rx="4" ry="4" fill="white"/>
  <rect x="60" y="36" width="20" height="5" rx="2" fill="#F1C40F"/>
  <rect x="60" y="45" width="20" height="10" rx="2" fill="#E74C3C"/>
  <path d="M65 60 l5 6 l10 -10" stroke="#27AE60" stroke-width="3" fill="none"/>

  <!-- Brand Text -->
  <text x="120" y="60" font-family="sans-serif" font-size="30" font-weight="bold" fill="#2C3E50">Impuest</text>
  <text x="248" y="60" font-family="sans-serif" font-size="30" font-weight="bold" fill="#2C3E50">IA</text>
  <text x="120" y="90" font-family="sans-serif" font-size="16" fill="#2C3E50">Tu asistente fiscal digital</text>
</svg>
